<mxfile host="app.diagrams.net" modified="2023-10-08T02:35:06.305Z" agent="Mozilla/5.0 (Windows NT 10.0; Win64; x64) AppleWebKit/537.36 (KHTML, like Gecko) Chrome/117.0.0.0 Safari/537.36" etag="Xyk39YFhDqq3nOM0NMqQ" version="22.0.4" type="device">
  <diagram name="Page-1" id="N1jnjhs2TgwopPefJ2I7">
    <mxGraphModel dx="795" dy="1823" grid="1" gridSize="10" guides="1" tooltips="1" connect="1" arrows="1" fold="1" page="1" pageScale="1" pageWidth="850" pageHeight="1100" math="0" shadow="0">
      <root>
        <mxCell id="0" />
        <mxCell id="1" parent="0" />
        <mxCell id="KQO8Vrs6MrCLd3Il5mY6-160" value="task 1" style="text;html=1;align=center;verticalAlign=middle;resizable=0;points=[];autosize=1;strokeColor=none;fillColor=none;" parent="1" vertex="1">
          <mxGeometry x="270" y="890" width="60" height="30" as="geometry" />
        </mxCell>
        <mxCell id="KQO8Vrs6MrCLd3Il5mY6-196" value="Whole Image in heap" style="text;html=1;align=center;verticalAlign=middle;resizable=0;points=[];autosize=1;strokeColor=none;fillColor=none;" parent="1" vertex="1">
          <mxGeometry x="491" y="790" width="140" height="30" as="geometry" />
        </mxCell>
        <mxCell id="bN_uFguqdwmR4wM4Cw1W-387" value="" style="group" vertex="1" connectable="0" parent="1">
          <mxGeometry x="341" y="879.5" width="420" height="90" as="geometry" />
        </mxCell>
        <mxCell id="bN_uFguqdwmR4wM4Cw1W-134" value="" style="group" vertex="1" connectable="0" parent="bN_uFguqdwmR4wM4Cw1W-387">
          <mxGeometry width="420" height="30" as="geometry" />
        </mxCell>
        <mxCell id="KQO8Vrs6MrCLd3Il5mY6-143" value="" style="rounded=0;whiteSpace=wrap;html=1;" parent="bN_uFguqdwmR4wM4Cw1W-134" vertex="1">
          <mxGeometry width="30" height="30" as="geometry" />
        </mxCell>
        <mxCell id="KQO8Vrs6MrCLd3Il5mY6-144" value="" style="rounded=0;whiteSpace=wrap;html=1;" parent="bN_uFguqdwmR4wM4Cw1W-134" vertex="1">
          <mxGeometry x="30" width="30" height="30" as="geometry" />
        </mxCell>
        <mxCell id="KQO8Vrs6MrCLd3Il5mY6-145" value="" style="rounded=0;whiteSpace=wrap;html=1;" parent="bN_uFguqdwmR4wM4Cw1W-134" vertex="1">
          <mxGeometry x="60" width="30" height="30" as="geometry" />
        </mxCell>
        <mxCell id="KQO8Vrs6MrCLd3Il5mY6-146" value="" style="rounded=0;whiteSpace=wrap;html=1;" parent="bN_uFguqdwmR4wM4Cw1W-134" vertex="1">
          <mxGeometry x="90" width="30" height="30" as="geometry" />
        </mxCell>
        <mxCell id="KQO8Vrs6MrCLd3Il5mY6-147" value="" style="rounded=0;whiteSpace=wrap;html=1;" parent="bN_uFguqdwmR4wM4Cw1W-134" vertex="1">
          <mxGeometry x="120" width="30" height="30" as="geometry" />
        </mxCell>
        <mxCell id="KQO8Vrs6MrCLd3Il5mY6-148" value="" style="rounded=0;whiteSpace=wrap;html=1;" parent="bN_uFguqdwmR4wM4Cw1W-134" vertex="1">
          <mxGeometry x="150" width="30" height="30" as="geometry" />
        </mxCell>
        <mxCell id="KQO8Vrs6MrCLd3Il5mY6-149" value="" style="rounded=0;whiteSpace=wrap;html=1;" parent="bN_uFguqdwmR4wM4Cw1W-134" vertex="1">
          <mxGeometry x="180" width="30" height="30" as="geometry" />
        </mxCell>
        <mxCell id="bN_uFguqdwmR4wM4Cw1W-70" value="" style="rounded=0;whiteSpace=wrap;html=1;" vertex="1" parent="bN_uFguqdwmR4wM4Cw1W-134">
          <mxGeometry x="210" width="30" height="30" as="geometry" />
        </mxCell>
        <mxCell id="bN_uFguqdwmR4wM4Cw1W-71" value="" style="rounded=0;whiteSpace=wrap;html=1;" vertex="1" parent="bN_uFguqdwmR4wM4Cw1W-134">
          <mxGeometry x="240" width="30" height="30" as="geometry" />
        </mxCell>
        <mxCell id="bN_uFguqdwmR4wM4Cw1W-72" value="" style="rounded=0;whiteSpace=wrap;html=1;" vertex="1" parent="bN_uFguqdwmR4wM4Cw1W-134">
          <mxGeometry x="270" width="30" height="30" as="geometry" />
        </mxCell>
        <mxCell id="bN_uFguqdwmR4wM4Cw1W-73" value="" style="rounded=0;whiteSpace=wrap;html=1;" vertex="1" parent="bN_uFguqdwmR4wM4Cw1W-134">
          <mxGeometry x="300" width="30" height="30" as="geometry" />
        </mxCell>
        <mxCell id="bN_uFguqdwmR4wM4Cw1W-74" value="" style="rounded=0;whiteSpace=wrap;html=1;" vertex="1" parent="bN_uFguqdwmR4wM4Cw1W-134">
          <mxGeometry x="330" width="30" height="30" as="geometry" />
        </mxCell>
        <mxCell id="bN_uFguqdwmR4wM4Cw1W-75" value="" style="rounded=0;whiteSpace=wrap;html=1;" vertex="1" parent="bN_uFguqdwmR4wM4Cw1W-134">
          <mxGeometry x="360" width="30" height="30" as="geometry" />
        </mxCell>
        <mxCell id="bN_uFguqdwmR4wM4Cw1W-76" value="" style="rounded=0;whiteSpace=wrap;html=1;" vertex="1" parent="bN_uFguqdwmR4wM4Cw1W-134">
          <mxGeometry x="390" width="30" height="30" as="geometry" />
        </mxCell>
        <mxCell id="bN_uFguqdwmR4wM4Cw1W-166" value="" style="rounded=0;whiteSpace=wrap;html=1;" vertex="1" parent="bN_uFguqdwmR4wM4Cw1W-134">
          <mxGeometry y="-30" width="30" height="30" as="geometry" />
        </mxCell>
        <mxCell id="bN_uFguqdwmR4wM4Cw1W-167" value="" style="rounded=0;whiteSpace=wrap;html=1;" vertex="1" parent="bN_uFguqdwmR4wM4Cw1W-134">
          <mxGeometry x="30" y="-30" width="30" height="30" as="geometry" />
        </mxCell>
        <mxCell id="bN_uFguqdwmR4wM4Cw1W-168" value="" style="rounded=0;whiteSpace=wrap;html=1;" vertex="1" parent="bN_uFguqdwmR4wM4Cw1W-134">
          <mxGeometry x="60" y="-30" width="30" height="30" as="geometry" />
        </mxCell>
        <mxCell id="bN_uFguqdwmR4wM4Cw1W-169" value="" style="rounded=0;whiteSpace=wrap;html=1;" vertex="1" parent="bN_uFguqdwmR4wM4Cw1W-134">
          <mxGeometry x="90" y="-30" width="30" height="30" as="geometry" />
        </mxCell>
        <mxCell id="bN_uFguqdwmR4wM4Cw1W-170" value="" style="rounded=0;whiteSpace=wrap;html=1;" vertex="1" parent="bN_uFguqdwmR4wM4Cw1W-134">
          <mxGeometry x="120" y="-30" width="30" height="30" as="geometry" />
        </mxCell>
        <mxCell id="bN_uFguqdwmR4wM4Cw1W-171" value="" style="rounded=0;whiteSpace=wrap;html=1;" vertex="1" parent="bN_uFguqdwmR4wM4Cw1W-134">
          <mxGeometry x="150" y="-30" width="30" height="30" as="geometry" />
        </mxCell>
        <mxCell id="bN_uFguqdwmR4wM4Cw1W-172" value="" style="rounded=0;whiteSpace=wrap;html=1;" vertex="1" parent="bN_uFguqdwmR4wM4Cw1W-134">
          <mxGeometry x="180" y="-30" width="30" height="30" as="geometry" />
        </mxCell>
        <mxCell id="bN_uFguqdwmR4wM4Cw1W-173" value="" style="rounded=0;whiteSpace=wrap;html=1;" vertex="1" parent="bN_uFguqdwmR4wM4Cw1W-134">
          <mxGeometry x="210" y="-30" width="30" height="30" as="geometry" />
        </mxCell>
        <mxCell id="bN_uFguqdwmR4wM4Cw1W-174" value="" style="rounded=0;whiteSpace=wrap;html=1;" vertex="1" parent="bN_uFguqdwmR4wM4Cw1W-134">
          <mxGeometry x="240" y="-30" width="30" height="30" as="geometry" />
        </mxCell>
        <mxCell id="bN_uFguqdwmR4wM4Cw1W-175" value="" style="rounded=0;whiteSpace=wrap;html=1;" vertex="1" parent="bN_uFguqdwmR4wM4Cw1W-134">
          <mxGeometry x="270" y="-30" width="30" height="30" as="geometry" />
        </mxCell>
        <mxCell id="bN_uFguqdwmR4wM4Cw1W-176" value="" style="rounded=0;whiteSpace=wrap;html=1;" vertex="1" parent="bN_uFguqdwmR4wM4Cw1W-134">
          <mxGeometry x="300" y="-30" width="30" height="30" as="geometry" />
        </mxCell>
        <mxCell id="bN_uFguqdwmR4wM4Cw1W-177" value="" style="rounded=0;whiteSpace=wrap;html=1;" vertex="1" parent="bN_uFguqdwmR4wM4Cw1W-134">
          <mxGeometry x="330" y="-30" width="30" height="30" as="geometry" />
        </mxCell>
        <mxCell id="bN_uFguqdwmR4wM4Cw1W-178" value="" style="rounded=0;whiteSpace=wrap;html=1;" vertex="1" parent="bN_uFguqdwmR4wM4Cw1W-134">
          <mxGeometry x="360" y="-30" width="30" height="30" as="geometry" />
        </mxCell>
        <mxCell id="bN_uFguqdwmR4wM4Cw1W-179" value="" style="rounded=0;whiteSpace=wrap;html=1;" vertex="1" parent="bN_uFguqdwmR4wM4Cw1W-134">
          <mxGeometry x="390" y="-30" width="30" height="30" as="geometry" />
        </mxCell>
        <mxCell id="bN_uFguqdwmR4wM4Cw1W-355" value="" style="rounded=0;whiteSpace=wrap;html=1;" vertex="1" parent="bN_uFguqdwmR4wM4Cw1W-387">
          <mxGeometry y="60" width="30" height="30" as="geometry" />
        </mxCell>
        <mxCell id="bN_uFguqdwmR4wM4Cw1W-356" value="" style="rounded=0;whiteSpace=wrap;html=1;" vertex="1" parent="bN_uFguqdwmR4wM4Cw1W-387">
          <mxGeometry x="30" y="60" width="30" height="30" as="geometry" />
        </mxCell>
        <mxCell id="bN_uFguqdwmR4wM4Cw1W-357" value="" style="rounded=0;whiteSpace=wrap;html=1;" vertex="1" parent="bN_uFguqdwmR4wM4Cw1W-387">
          <mxGeometry y="30" width="30" height="30" as="geometry" />
        </mxCell>
        <mxCell id="bN_uFguqdwmR4wM4Cw1W-358" value="" style="rounded=0;whiteSpace=wrap;html=1;" vertex="1" parent="bN_uFguqdwmR4wM4Cw1W-387">
          <mxGeometry x="30" y="30" width="30" height="30" as="geometry" />
        </mxCell>
        <mxCell id="bN_uFguqdwmR4wM4Cw1W-359" value="" style="rounded=0;whiteSpace=wrap;html=1;" vertex="1" parent="bN_uFguqdwmR4wM4Cw1W-387">
          <mxGeometry x="60" y="60" width="30" height="30" as="geometry" />
        </mxCell>
        <mxCell id="bN_uFguqdwmR4wM4Cw1W-360" value="" style="rounded=0;whiteSpace=wrap;html=1;" vertex="1" parent="bN_uFguqdwmR4wM4Cw1W-387">
          <mxGeometry x="90" y="60" width="30" height="30" as="geometry" />
        </mxCell>
        <mxCell id="bN_uFguqdwmR4wM4Cw1W-361" value="" style="rounded=0;whiteSpace=wrap;html=1;" vertex="1" parent="bN_uFguqdwmR4wM4Cw1W-387">
          <mxGeometry x="60" y="30" width="30" height="30" as="geometry" />
        </mxCell>
        <mxCell id="bN_uFguqdwmR4wM4Cw1W-362" value="" style="rounded=0;whiteSpace=wrap;html=1;" vertex="1" parent="bN_uFguqdwmR4wM4Cw1W-387">
          <mxGeometry x="90" y="30" width="30" height="30" as="geometry" />
        </mxCell>
        <mxCell id="bN_uFguqdwmR4wM4Cw1W-363" value="" style="rounded=0;whiteSpace=wrap;html=1;" vertex="1" parent="bN_uFguqdwmR4wM4Cw1W-387">
          <mxGeometry x="120" y="60" width="30" height="30" as="geometry" />
        </mxCell>
        <mxCell id="bN_uFguqdwmR4wM4Cw1W-364" value="" style="rounded=0;whiteSpace=wrap;html=1;" vertex="1" parent="bN_uFguqdwmR4wM4Cw1W-387">
          <mxGeometry x="150" y="60" width="30" height="30" as="geometry" />
        </mxCell>
        <mxCell id="bN_uFguqdwmR4wM4Cw1W-365" value="" style="rounded=0;whiteSpace=wrap;html=1;" vertex="1" parent="bN_uFguqdwmR4wM4Cw1W-387">
          <mxGeometry x="120" y="30" width="30" height="30" as="geometry" />
        </mxCell>
        <mxCell id="bN_uFguqdwmR4wM4Cw1W-366" value="" style="rounded=0;whiteSpace=wrap;html=1;" vertex="1" parent="bN_uFguqdwmR4wM4Cw1W-387">
          <mxGeometry x="150" y="30" width="30" height="30" as="geometry" />
        </mxCell>
        <mxCell id="bN_uFguqdwmR4wM4Cw1W-367" value="" style="rounded=0;whiteSpace=wrap;html=1;" vertex="1" parent="bN_uFguqdwmR4wM4Cw1W-387">
          <mxGeometry x="180" y="60" width="30" height="30" as="geometry" />
        </mxCell>
        <mxCell id="bN_uFguqdwmR4wM4Cw1W-368" value="" style="rounded=0;whiteSpace=wrap;html=1;" vertex="1" parent="bN_uFguqdwmR4wM4Cw1W-387">
          <mxGeometry x="210" y="60" width="30" height="30" as="geometry" />
        </mxCell>
        <mxCell id="bN_uFguqdwmR4wM4Cw1W-369" value="" style="rounded=0;whiteSpace=wrap;html=1;" vertex="1" parent="bN_uFguqdwmR4wM4Cw1W-387">
          <mxGeometry x="180" y="30" width="30" height="30" as="geometry" />
        </mxCell>
        <mxCell id="bN_uFguqdwmR4wM4Cw1W-370" value="" style="rounded=0;whiteSpace=wrap;html=1;" vertex="1" parent="bN_uFguqdwmR4wM4Cw1W-387">
          <mxGeometry x="210" y="30" width="30" height="30" as="geometry" />
        </mxCell>
        <mxCell id="bN_uFguqdwmR4wM4Cw1W-371" value="" style="rounded=0;whiteSpace=wrap;html=1;" vertex="1" parent="bN_uFguqdwmR4wM4Cw1W-387">
          <mxGeometry x="240" y="60" width="30" height="30" as="geometry" />
        </mxCell>
        <mxCell id="bN_uFguqdwmR4wM4Cw1W-372" value="" style="rounded=0;whiteSpace=wrap;html=1;" vertex="1" parent="bN_uFguqdwmR4wM4Cw1W-387">
          <mxGeometry x="270" y="60" width="30" height="30" as="geometry" />
        </mxCell>
        <mxCell id="bN_uFguqdwmR4wM4Cw1W-373" value="" style="rounded=0;whiteSpace=wrap;html=1;" vertex="1" parent="bN_uFguqdwmR4wM4Cw1W-387">
          <mxGeometry x="240" y="30" width="30" height="30" as="geometry" />
        </mxCell>
        <mxCell id="bN_uFguqdwmR4wM4Cw1W-374" value="" style="rounded=0;whiteSpace=wrap;html=1;" vertex="1" parent="bN_uFguqdwmR4wM4Cw1W-387">
          <mxGeometry x="270" y="30" width="30" height="30" as="geometry" />
        </mxCell>
        <mxCell id="bN_uFguqdwmR4wM4Cw1W-375" value="" style="rounded=0;whiteSpace=wrap;html=1;" vertex="1" parent="bN_uFguqdwmR4wM4Cw1W-387">
          <mxGeometry x="300" y="60" width="30" height="30" as="geometry" />
        </mxCell>
        <mxCell id="bN_uFguqdwmR4wM4Cw1W-376" value="" style="rounded=0;whiteSpace=wrap;html=1;" vertex="1" parent="bN_uFguqdwmR4wM4Cw1W-387">
          <mxGeometry x="330" y="60" width="30" height="30" as="geometry" />
        </mxCell>
        <mxCell id="bN_uFguqdwmR4wM4Cw1W-377" value="" style="rounded=0;whiteSpace=wrap;html=1;" vertex="1" parent="bN_uFguqdwmR4wM4Cw1W-387">
          <mxGeometry x="300" y="30" width="30" height="30" as="geometry" />
        </mxCell>
        <mxCell id="bN_uFguqdwmR4wM4Cw1W-378" value="" style="rounded=0;whiteSpace=wrap;html=1;" vertex="1" parent="bN_uFguqdwmR4wM4Cw1W-387">
          <mxGeometry x="330" y="30" width="30" height="30" as="geometry" />
        </mxCell>
        <mxCell id="bN_uFguqdwmR4wM4Cw1W-379" value="" style="rounded=0;whiteSpace=wrap;html=1;" vertex="1" parent="bN_uFguqdwmR4wM4Cw1W-387">
          <mxGeometry x="360" y="60" width="30" height="30" as="geometry" />
        </mxCell>
        <mxCell id="bN_uFguqdwmR4wM4Cw1W-380" value="" style="rounded=0;whiteSpace=wrap;html=1;" vertex="1" parent="bN_uFguqdwmR4wM4Cw1W-387">
          <mxGeometry x="390" y="60" width="30" height="30" as="geometry" />
        </mxCell>
        <mxCell id="bN_uFguqdwmR4wM4Cw1W-381" value="" style="rounded=0;whiteSpace=wrap;html=1;" vertex="1" parent="bN_uFguqdwmR4wM4Cw1W-387">
          <mxGeometry x="360" y="30" width="30" height="30" as="geometry" />
        </mxCell>
        <mxCell id="bN_uFguqdwmR4wM4Cw1W-382" value="" style="rounded=0;whiteSpace=wrap;html=1;" vertex="1" parent="bN_uFguqdwmR4wM4Cw1W-387">
          <mxGeometry x="390" y="30" width="30" height="30" as="geometry" />
        </mxCell>
        <mxCell id="bN_uFguqdwmR4wM4Cw1W-679" value="task 2" style="text;html=1;align=center;verticalAlign=middle;resizable=0;points=[];autosize=1;strokeColor=none;fillColor=none;" vertex="1" parent="1">
          <mxGeometry x="270" y="1020.5" width="60" height="30" as="geometry" />
        </mxCell>
        <mxCell id="bN_uFguqdwmR4wM4Cw1W-680" value="" style="group" vertex="1" connectable="0" parent="1">
          <mxGeometry x="341" y="1010" width="420" height="90" as="geometry" />
        </mxCell>
        <mxCell id="bN_uFguqdwmR4wM4Cw1W-681" value="" style="group" vertex="1" connectable="0" parent="bN_uFguqdwmR4wM4Cw1W-680">
          <mxGeometry width="420" height="30" as="geometry" />
        </mxCell>
        <mxCell id="bN_uFguqdwmR4wM4Cw1W-682" value="" style="rounded=0;whiteSpace=wrap;html=1;" vertex="1" parent="bN_uFguqdwmR4wM4Cw1W-681">
          <mxGeometry width="30" height="30" as="geometry" />
        </mxCell>
        <mxCell id="bN_uFguqdwmR4wM4Cw1W-683" value="" style="rounded=0;whiteSpace=wrap;html=1;" vertex="1" parent="bN_uFguqdwmR4wM4Cw1W-681">
          <mxGeometry x="30" width="30" height="30" as="geometry" />
        </mxCell>
        <mxCell id="bN_uFguqdwmR4wM4Cw1W-684" value="" style="rounded=0;whiteSpace=wrap;html=1;" vertex="1" parent="bN_uFguqdwmR4wM4Cw1W-681">
          <mxGeometry x="60" width="30" height="30" as="geometry" />
        </mxCell>
        <mxCell id="bN_uFguqdwmR4wM4Cw1W-685" value="" style="rounded=0;whiteSpace=wrap;html=1;" vertex="1" parent="bN_uFguqdwmR4wM4Cw1W-681">
          <mxGeometry x="90" width="30" height="30" as="geometry" />
        </mxCell>
        <mxCell id="bN_uFguqdwmR4wM4Cw1W-686" value="" style="rounded=0;whiteSpace=wrap;html=1;" vertex="1" parent="bN_uFguqdwmR4wM4Cw1W-681">
          <mxGeometry x="120" width="30" height="30" as="geometry" />
        </mxCell>
        <mxCell id="bN_uFguqdwmR4wM4Cw1W-687" value="" style="rounded=0;whiteSpace=wrap;html=1;" vertex="1" parent="bN_uFguqdwmR4wM4Cw1W-681">
          <mxGeometry x="150" width="30" height="30" as="geometry" />
        </mxCell>
        <mxCell id="bN_uFguqdwmR4wM4Cw1W-688" value="" style="rounded=0;whiteSpace=wrap;html=1;" vertex="1" parent="bN_uFguqdwmR4wM4Cw1W-681">
          <mxGeometry x="180" width="30" height="30" as="geometry" />
        </mxCell>
        <mxCell id="bN_uFguqdwmR4wM4Cw1W-689" value="" style="rounded=0;whiteSpace=wrap;html=1;" vertex="1" parent="bN_uFguqdwmR4wM4Cw1W-681">
          <mxGeometry x="210" width="30" height="30" as="geometry" />
        </mxCell>
        <mxCell id="bN_uFguqdwmR4wM4Cw1W-690" value="" style="rounded=0;whiteSpace=wrap;html=1;" vertex="1" parent="bN_uFguqdwmR4wM4Cw1W-681">
          <mxGeometry x="240" width="30" height="30" as="geometry" />
        </mxCell>
        <mxCell id="bN_uFguqdwmR4wM4Cw1W-691" value="" style="rounded=0;whiteSpace=wrap;html=1;" vertex="1" parent="bN_uFguqdwmR4wM4Cw1W-681">
          <mxGeometry x="270" width="30" height="30" as="geometry" />
        </mxCell>
        <mxCell id="bN_uFguqdwmR4wM4Cw1W-692" value="" style="rounded=0;whiteSpace=wrap;html=1;" vertex="1" parent="bN_uFguqdwmR4wM4Cw1W-681">
          <mxGeometry x="300" width="30" height="30" as="geometry" />
        </mxCell>
        <mxCell id="bN_uFguqdwmR4wM4Cw1W-693" value="" style="rounded=0;whiteSpace=wrap;html=1;" vertex="1" parent="bN_uFguqdwmR4wM4Cw1W-681">
          <mxGeometry x="330" width="30" height="30" as="geometry" />
        </mxCell>
        <mxCell id="bN_uFguqdwmR4wM4Cw1W-694" value="" style="rounded=0;whiteSpace=wrap;html=1;" vertex="1" parent="bN_uFguqdwmR4wM4Cw1W-681">
          <mxGeometry x="360" width="30" height="30" as="geometry" />
        </mxCell>
        <mxCell id="bN_uFguqdwmR4wM4Cw1W-695" value="" style="rounded=0;whiteSpace=wrap;html=1;" vertex="1" parent="bN_uFguqdwmR4wM4Cw1W-681">
          <mxGeometry x="390" width="30" height="30" as="geometry" />
        </mxCell>
        <mxCell id="bN_uFguqdwmR4wM4Cw1W-696" value="" style="rounded=0;whiteSpace=wrap;html=1;" vertex="1" parent="bN_uFguqdwmR4wM4Cw1W-681">
          <mxGeometry y="-30" width="30" height="30" as="geometry" />
        </mxCell>
        <mxCell id="bN_uFguqdwmR4wM4Cw1W-697" value="" style="rounded=0;whiteSpace=wrap;html=1;" vertex="1" parent="bN_uFguqdwmR4wM4Cw1W-681">
          <mxGeometry x="30" y="-30" width="30" height="30" as="geometry" />
        </mxCell>
        <mxCell id="bN_uFguqdwmR4wM4Cw1W-698" value="" style="rounded=0;whiteSpace=wrap;html=1;" vertex="1" parent="bN_uFguqdwmR4wM4Cw1W-681">
          <mxGeometry x="60" y="-30" width="30" height="30" as="geometry" />
        </mxCell>
        <mxCell id="bN_uFguqdwmR4wM4Cw1W-699" value="" style="rounded=0;whiteSpace=wrap;html=1;" vertex="1" parent="bN_uFguqdwmR4wM4Cw1W-681">
          <mxGeometry x="90" y="-30" width="30" height="30" as="geometry" />
        </mxCell>
        <mxCell id="bN_uFguqdwmR4wM4Cw1W-700" value="" style="rounded=0;whiteSpace=wrap;html=1;" vertex="1" parent="bN_uFguqdwmR4wM4Cw1W-681">
          <mxGeometry x="120" y="-30" width="30" height="30" as="geometry" />
        </mxCell>
        <mxCell id="bN_uFguqdwmR4wM4Cw1W-701" value="" style="rounded=0;whiteSpace=wrap;html=1;" vertex="1" parent="bN_uFguqdwmR4wM4Cw1W-681">
          <mxGeometry x="150" y="-30" width="30" height="30" as="geometry" />
        </mxCell>
        <mxCell id="bN_uFguqdwmR4wM4Cw1W-702" value="" style="rounded=0;whiteSpace=wrap;html=1;" vertex="1" parent="bN_uFguqdwmR4wM4Cw1W-681">
          <mxGeometry x="180" y="-30" width="30" height="30" as="geometry" />
        </mxCell>
        <mxCell id="bN_uFguqdwmR4wM4Cw1W-703" value="" style="rounded=0;whiteSpace=wrap;html=1;" vertex="1" parent="bN_uFguqdwmR4wM4Cw1W-681">
          <mxGeometry x="210" y="-30" width="30" height="30" as="geometry" />
        </mxCell>
        <mxCell id="bN_uFguqdwmR4wM4Cw1W-704" value="" style="rounded=0;whiteSpace=wrap;html=1;" vertex="1" parent="bN_uFguqdwmR4wM4Cw1W-681">
          <mxGeometry x="240" y="-30" width="30" height="30" as="geometry" />
        </mxCell>
        <mxCell id="bN_uFguqdwmR4wM4Cw1W-705" value="" style="rounded=0;whiteSpace=wrap;html=1;" vertex="1" parent="bN_uFguqdwmR4wM4Cw1W-681">
          <mxGeometry x="270" y="-30" width="30" height="30" as="geometry" />
        </mxCell>
        <mxCell id="bN_uFguqdwmR4wM4Cw1W-706" value="" style="rounded=0;whiteSpace=wrap;html=1;" vertex="1" parent="bN_uFguqdwmR4wM4Cw1W-681">
          <mxGeometry x="300" y="-30" width="30" height="30" as="geometry" />
        </mxCell>
        <mxCell id="bN_uFguqdwmR4wM4Cw1W-707" value="" style="rounded=0;whiteSpace=wrap;html=1;" vertex="1" parent="bN_uFguqdwmR4wM4Cw1W-681">
          <mxGeometry x="330" y="-30" width="30" height="30" as="geometry" />
        </mxCell>
        <mxCell id="bN_uFguqdwmR4wM4Cw1W-708" value="" style="rounded=0;whiteSpace=wrap;html=1;" vertex="1" parent="bN_uFguqdwmR4wM4Cw1W-681">
          <mxGeometry x="360" y="-30" width="30" height="30" as="geometry" />
        </mxCell>
        <mxCell id="bN_uFguqdwmR4wM4Cw1W-709" value="" style="rounded=0;whiteSpace=wrap;html=1;" vertex="1" parent="bN_uFguqdwmR4wM4Cw1W-681">
          <mxGeometry x="390" y="-30" width="30" height="30" as="geometry" />
        </mxCell>
        <mxCell id="bN_uFguqdwmR4wM4Cw1W-710" value="" style="rounded=0;whiteSpace=wrap;html=1;" vertex="1" parent="bN_uFguqdwmR4wM4Cw1W-680">
          <mxGeometry y="60" width="30" height="30" as="geometry" />
        </mxCell>
        <mxCell id="bN_uFguqdwmR4wM4Cw1W-711" value="" style="rounded=0;whiteSpace=wrap;html=1;" vertex="1" parent="bN_uFguqdwmR4wM4Cw1W-680">
          <mxGeometry x="30" y="60" width="30" height="30" as="geometry" />
        </mxCell>
        <mxCell id="bN_uFguqdwmR4wM4Cw1W-712" value="" style="rounded=0;whiteSpace=wrap;html=1;" vertex="1" parent="bN_uFguqdwmR4wM4Cw1W-680">
          <mxGeometry y="30" width="30" height="30" as="geometry" />
        </mxCell>
        <mxCell id="bN_uFguqdwmR4wM4Cw1W-713" value="" style="rounded=0;whiteSpace=wrap;html=1;" vertex="1" parent="bN_uFguqdwmR4wM4Cw1W-680">
          <mxGeometry x="30" y="30" width="30" height="30" as="geometry" />
        </mxCell>
        <mxCell id="bN_uFguqdwmR4wM4Cw1W-714" value="" style="rounded=0;whiteSpace=wrap;html=1;" vertex="1" parent="bN_uFguqdwmR4wM4Cw1W-680">
          <mxGeometry x="60" y="60" width="30" height="30" as="geometry" />
        </mxCell>
        <mxCell id="bN_uFguqdwmR4wM4Cw1W-715" value="" style="rounded=0;whiteSpace=wrap;html=1;" vertex="1" parent="bN_uFguqdwmR4wM4Cw1W-680">
          <mxGeometry x="90" y="60" width="30" height="30" as="geometry" />
        </mxCell>
        <mxCell id="bN_uFguqdwmR4wM4Cw1W-716" value="" style="rounded=0;whiteSpace=wrap;html=1;" vertex="1" parent="bN_uFguqdwmR4wM4Cw1W-680">
          <mxGeometry x="60" y="30" width="30" height="30" as="geometry" />
        </mxCell>
        <mxCell id="bN_uFguqdwmR4wM4Cw1W-717" value="" style="rounded=0;whiteSpace=wrap;html=1;" vertex="1" parent="bN_uFguqdwmR4wM4Cw1W-680">
          <mxGeometry x="90" y="30" width="30" height="30" as="geometry" />
        </mxCell>
        <mxCell id="bN_uFguqdwmR4wM4Cw1W-718" value="" style="rounded=0;whiteSpace=wrap;html=1;" vertex="1" parent="bN_uFguqdwmR4wM4Cw1W-680">
          <mxGeometry x="120" y="60" width="30" height="30" as="geometry" />
        </mxCell>
        <mxCell id="bN_uFguqdwmR4wM4Cw1W-719" value="" style="rounded=0;whiteSpace=wrap;html=1;" vertex="1" parent="bN_uFguqdwmR4wM4Cw1W-680">
          <mxGeometry x="150" y="60" width="30" height="30" as="geometry" />
        </mxCell>
        <mxCell id="bN_uFguqdwmR4wM4Cw1W-720" value="" style="rounded=0;whiteSpace=wrap;html=1;" vertex="1" parent="bN_uFguqdwmR4wM4Cw1W-680">
          <mxGeometry x="120" y="30" width="30" height="30" as="geometry" />
        </mxCell>
        <mxCell id="bN_uFguqdwmR4wM4Cw1W-721" value="" style="rounded=0;whiteSpace=wrap;html=1;" vertex="1" parent="bN_uFguqdwmR4wM4Cw1W-680">
          <mxGeometry x="150" y="30" width="30" height="30" as="geometry" />
        </mxCell>
        <mxCell id="bN_uFguqdwmR4wM4Cw1W-722" value="" style="rounded=0;whiteSpace=wrap;html=1;" vertex="1" parent="bN_uFguqdwmR4wM4Cw1W-680">
          <mxGeometry x="180" y="60" width="30" height="30" as="geometry" />
        </mxCell>
        <mxCell id="bN_uFguqdwmR4wM4Cw1W-723" value="" style="rounded=0;whiteSpace=wrap;html=1;" vertex="1" parent="bN_uFguqdwmR4wM4Cw1W-680">
          <mxGeometry x="210" y="60" width="30" height="30" as="geometry" />
        </mxCell>
        <mxCell id="bN_uFguqdwmR4wM4Cw1W-724" value="" style="rounded=0;whiteSpace=wrap;html=1;" vertex="1" parent="bN_uFguqdwmR4wM4Cw1W-680">
          <mxGeometry x="180" y="30" width="30" height="30" as="geometry" />
        </mxCell>
        <mxCell id="bN_uFguqdwmR4wM4Cw1W-725" value="" style="rounded=0;whiteSpace=wrap;html=1;" vertex="1" parent="bN_uFguqdwmR4wM4Cw1W-680">
          <mxGeometry x="210" y="30" width="30" height="30" as="geometry" />
        </mxCell>
        <mxCell id="bN_uFguqdwmR4wM4Cw1W-726" value="" style="rounded=0;whiteSpace=wrap;html=1;" vertex="1" parent="bN_uFguqdwmR4wM4Cw1W-680">
          <mxGeometry x="240" y="60" width="30" height="30" as="geometry" />
        </mxCell>
        <mxCell id="bN_uFguqdwmR4wM4Cw1W-727" value="" style="rounded=0;whiteSpace=wrap;html=1;" vertex="1" parent="bN_uFguqdwmR4wM4Cw1W-680">
          <mxGeometry x="270" y="60" width="30" height="30" as="geometry" />
        </mxCell>
        <mxCell id="bN_uFguqdwmR4wM4Cw1W-728" value="" style="rounded=0;whiteSpace=wrap;html=1;" vertex="1" parent="bN_uFguqdwmR4wM4Cw1W-680">
          <mxGeometry x="240" y="30" width="30" height="30" as="geometry" />
        </mxCell>
        <mxCell id="bN_uFguqdwmR4wM4Cw1W-729" value="" style="rounded=0;whiteSpace=wrap;html=1;" vertex="1" parent="bN_uFguqdwmR4wM4Cw1W-680">
          <mxGeometry x="270" y="30" width="30" height="30" as="geometry" />
        </mxCell>
        <mxCell id="bN_uFguqdwmR4wM4Cw1W-730" value="" style="rounded=0;whiteSpace=wrap;html=1;" vertex="1" parent="bN_uFguqdwmR4wM4Cw1W-680">
          <mxGeometry x="300" y="60" width="30" height="30" as="geometry" />
        </mxCell>
        <mxCell id="bN_uFguqdwmR4wM4Cw1W-731" value="" style="rounded=0;whiteSpace=wrap;html=1;" vertex="1" parent="bN_uFguqdwmR4wM4Cw1W-680">
          <mxGeometry x="330" y="60" width="30" height="30" as="geometry" />
        </mxCell>
        <mxCell id="bN_uFguqdwmR4wM4Cw1W-732" value="" style="rounded=0;whiteSpace=wrap;html=1;" vertex="1" parent="bN_uFguqdwmR4wM4Cw1W-680">
          <mxGeometry x="300" y="30" width="30" height="30" as="geometry" />
        </mxCell>
        <mxCell id="bN_uFguqdwmR4wM4Cw1W-733" value="" style="rounded=0;whiteSpace=wrap;html=1;" vertex="1" parent="bN_uFguqdwmR4wM4Cw1W-680">
          <mxGeometry x="330" y="30" width="30" height="30" as="geometry" />
        </mxCell>
        <mxCell id="bN_uFguqdwmR4wM4Cw1W-734" value="" style="rounded=0;whiteSpace=wrap;html=1;" vertex="1" parent="bN_uFguqdwmR4wM4Cw1W-680">
          <mxGeometry x="360" y="60" width="30" height="30" as="geometry" />
        </mxCell>
        <mxCell id="bN_uFguqdwmR4wM4Cw1W-735" value="" style="rounded=0;whiteSpace=wrap;html=1;" vertex="1" parent="bN_uFguqdwmR4wM4Cw1W-680">
          <mxGeometry x="390" y="60" width="30" height="30" as="geometry" />
        </mxCell>
        <mxCell id="bN_uFguqdwmR4wM4Cw1W-736" value="" style="rounded=0;whiteSpace=wrap;html=1;" vertex="1" parent="bN_uFguqdwmR4wM4Cw1W-680">
          <mxGeometry x="360" y="30" width="30" height="30" as="geometry" />
        </mxCell>
        <mxCell id="bN_uFguqdwmR4wM4Cw1W-737" value="" style="rounded=0;whiteSpace=wrap;html=1;" vertex="1" parent="bN_uFguqdwmR4wM4Cw1W-680">
          <mxGeometry x="390" y="30" width="30" height="30" as="geometry" />
        </mxCell>
        <mxCell id="bN_uFguqdwmR4wM4Cw1W-738" value="task n" style="text;html=1;align=center;verticalAlign=middle;resizable=0;points=[];autosize=1;strokeColor=none;fillColor=none;" vertex="1" parent="1">
          <mxGeometry x="270" y="1200.5" width="60" height="30" as="geometry" />
        </mxCell>
        <mxCell id="bN_uFguqdwmR4wM4Cw1W-739" value="" style="group" vertex="1" connectable="0" parent="1">
          <mxGeometry x="341" y="1190" width="420" height="90" as="geometry" />
        </mxCell>
        <mxCell id="bN_uFguqdwmR4wM4Cw1W-740" value="" style="group" vertex="1" connectable="0" parent="bN_uFguqdwmR4wM4Cw1W-739">
          <mxGeometry width="420" height="30" as="geometry" />
        </mxCell>
        <mxCell id="bN_uFguqdwmR4wM4Cw1W-741" value="" style="rounded=0;whiteSpace=wrap;html=1;" vertex="1" parent="bN_uFguqdwmR4wM4Cw1W-740">
          <mxGeometry width="30" height="30" as="geometry" />
        </mxCell>
        <mxCell id="bN_uFguqdwmR4wM4Cw1W-742" value="" style="rounded=0;whiteSpace=wrap;html=1;" vertex="1" parent="bN_uFguqdwmR4wM4Cw1W-740">
          <mxGeometry x="30" width="30" height="30" as="geometry" />
        </mxCell>
        <mxCell id="bN_uFguqdwmR4wM4Cw1W-743" value="" style="rounded=0;whiteSpace=wrap;html=1;" vertex="1" parent="bN_uFguqdwmR4wM4Cw1W-740">
          <mxGeometry x="60" width="30" height="30" as="geometry" />
        </mxCell>
        <mxCell id="bN_uFguqdwmR4wM4Cw1W-744" value="" style="rounded=0;whiteSpace=wrap;html=1;" vertex="1" parent="bN_uFguqdwmR4wM4Cw1W-740">
          <mxGeometry x="90" width="30" height="30" as="geometry" />
        </mxCell>
        <mxCell id="bN_uFguqdwmR4wM4Cw1W-745" value="" style="rounded=0;whiteSpace=wrap;html=1;" vertex="1" parent="bN_uFguqdwmR4wM4Cw1W-740">
          <mxGeometry x="120" width="30" height="30" as="geometry" />
        </mxCell>
        <mxCell id="bN_uFguqdwmR4wM4Cw1W-746" value="" style="rounded=0;whiteSpace=wrap;html=1;" vertex="1" parent="bN_uFguqdwmR4wM4Cw1W-740">
          <mxGeometry x="150" width="30" height="30" as="geometry" />
        </mxCell>
        <mxCell id="bN_uFguqdwmR4wM4Cw1W-747" value="" style="rounded=0;whiteSpace=wrap;html=1;" vertex="1" parent="bN_uFguqdwmR4wM4Cw1W-740">
          <mxGeometry x="180" width="30" height="30" as="geometry" />
        </mxCell>
        <mxCell id="bN_uFguqdwmR4wM4Cw1W-748" value="" style="rounded=0;whiteSpace=wrap;html=1;" vertex="1" parent="bN_uFguqdwmR4wM4Cw1W-740">
          <mxGeometry x="210" width="30" height="30" as="geometry" />
        </mxCell>
        <mxCell id="bN_uFguqdwmR4wM4Cw1W-749" value="" style="rounded=0;whiteSpace=wrap;html=1;" vertex="1" parent="bN_uFguqdwmR4wM4Cw1W-740">
          <mxGeometry x="240" width="30" height="30" as="geometry" />
        </mxCell>
        <mxCell id="bN_uFguqdwmR4wM4Cw1W-750" value="" style="rounded=0;whiteSpace=wrap;html=1;" vertex="1" parent="bN_uFguqdwmR4wM4Cw1W-740">
          <mxGeometry x="270" width="30" height="30" as="geometry" />
        </mxCell>
        <mxCell id="bN_uFguqdwmR4wM4Cw1W-751" value="" style="rounded=0;whiteSpace=wrap;html=1;" vertex="1" parent="bN_uFguqdwmR4wM4Cw1W-740">
          <mxGeometry x="300" width="30" height="30" as="geometry" />
        </mxCell>
        <mxCell id="bN_uFguqdwmR4wM4Cw1W-752" value="" style="rounded=0;whiteSpace=wrap;html=1;" vertex="1" parent="bN_uFguqdwmR4wM4Cw1W-740">
          <mxGeometry x="330" width="30" height="30" as="geometry" />
        </mxCell>
        <mxCell id="bN_uFguqdwmR4wM4Cw1W-753" value="" style="rounded=0;whiteSpace=wrap;html=1;" vertex="1" parent="bN_uFguqdwmR4wM4Cw1W-740">
          <mxGeometry x="360" width="30" height="30" as="geometry" />
        </mxCell>
        <mxCell id="bN_uFguqdwmR4wM4Cw1W-754" value="" style="rounded=0;whiteSpace=wrap;html=1;" vertex="1" parent="bN_uFguqdwmR4wM4Cw1W-740">
          <mxGeometry x="390" width="30" height="30" as="geometry" />
        </mxCell>
        <mxCell id="bN_uFguqdwmR4wM4Cw1W-755" value="" style="rounded=0;whiteSpace=wrap;html=1;" vertex="1" parent="bN_uFguqdwmR4wM4Cw1W-740">
          <mxGeometry y="-30" width="30" height="30" as="geometry" />
        </mxCell>
        <mxCell id="bN_uFguqdwmR4wM4Cw1W-756" value="" style="rounded=0;whiteSpace=wrap;html=1;" vertex="1" parent="bN_uFguqdwmR4wM4Cw1W-740">
          <mxGeometry x="30" y="-30" width="30" height="30" as="geometry" />
        </mxCell>
        <mxCell id="bN_uFguqdwmR4wM4Cw1W-757" value="" style="rounded=0;whiteSpace=wrap;html=1;" vertex="1" parent="bN_uFguqdwmR4wM4Cw1W-740">
          <mxGeometry x="60" y="-30" width="30" height="30" as="geometry" />
        </mxCell>
        <mxCell id="bN_uFguqdwmR4wM4Cw1W-758" value="" style="rounded=0;whiteSpace=wrap;html=1;" vertex="1" parent="bN_uFguqdwmR4wM4Cw1W-740">
          <mxGeometry x="90" y="-30" width="30" height="30" as="geometry" />
        </mxCell>
        <mxCell id="bN_uFguqdwmR4wM4Cw1W-759" value="" style="rounded=0;whiteSpace=wrap;html=1;" vertex="1" parent="bN_uFguqdwmR4wM4Cw1W-740">
          <mxGeometry x="120" y="-30" width="30" height="30" as="geometry" />
        </mxCell>
        <mxCell id="bN_uFguqdwmR4wM4Cw1W-760" value="" style="rounded=0;whiteSpace=wrap;html=1;" vertex="1" parent="bN_uFguqdwmR4wM4Cw1W-740">
          <mxGeometry x="150" y="-30" width="30" height="30" as="geometry" />
        </mxCell>
        <mxCell id="bN_uFguqdwmR4wM4Cw1W-761" value="" style="rounded=0;whiteSpace=wrap;html=1;" vertex="1" parent="bN_uFguqdwmR4wM4Cw1W-740">
          <mxGeometry x="180" y="-30" width="30" height="30" as="geometry" />
        </mxCell>
        <mxCell id="bN_uFguqdwmR4wM4Cw1W-762" value="" style="rounded=0;whiteSpace=wrap;html=1;" vertex="1" parent="bN_uFguqdwmR4wM4Cw1W-740">
          <mxGeometry x="210" y="-30" width="30" height="30" as="geometry" />
        </mxCell>
        <mxCell id="bN_uFguqdwmR4wM4Cw1W-763" value="" style="rounded=0;whiteSpace=wrap;html=1;" vertex="1" parent="bN_uFguqdwmR4wM4Cw1W-740">
          <mxGeometry x="240" y="-30" width="30" height="30" as="geometry" />
        </mxCell>
        <mxCell id="bN_uFguqdwmR4wM4Cw1W-764" value="" style="rounded=0;whiteSpace=wrap;html=1;" vertex="1" parent="bN_uFguqdwmR4wM4Cw1W-740">
          <mxGeometry x="270" y="-30" width="30" height="30" as="geometry" />
        </mxCell>
        <mxCell id="bN_uFguqdwmR4wM4Cw1W-765" value="" style="rounded=0;whiteSpace=wrap;html=1;" vertex="1" parent="bN_uFguqdwmR4wM4Cw1W-740">
          <mxGeometry x="300" y="-30" width="30" height="30" as="geometry" />
        </mxCell>
        <mxCell id="bN_uFguqdwmR4wM4Cw1W-766" value="" style="rounded=0;whiteSpace=wrap;html=1;" vertex="1" parent="bN_uFguqdwmR4wM4Cw1W-740">
          <mxGeometry x="330" y="-30" width="30" height="30" as="geometry" />
        </mxCell>
        <mxCell id="bN_uFguqdwmR4wM4Cw1W-767" value="" style="rounded=0;whiteSpace=wrap;html=1;" vertex="1" parent="bN_uFguqdwmR4wM4Cw1W-740">
          <mxGeometry x="360" y="-30" width="30" height="30" as="geometry" />
        </mxCell>
        <mxCell id="bN_uFguqdwmR4wM4Cw1W-768" value="" style="rounded=0;whiteSpace=wrap;html=1;" vertex="1" parent="bN_uFguqdwmR4wM4Cw1W-740">
          <mxGeometry x="390" y="-30" width="30" height="30" as="geometry" />
        </mxCell>
        <mxCell id="bN_uFguqdwmR4wM4Cw1W-769" value="" style="rounded=0;whiteSpace=wrap;html=1;" vertex="1" parent="bN_uFguqdwmR4wM4Cw1W-739">
          <mxGeometry y="60" width="30" height="30" as="geometry" />
        </mxCell>
        <mxCell id="bN_uFguqdwmR4wM4Cw1W-770" value="" style="rounded=0;whiteSpace=wrap;html=1;" vertex="1" parent="bN_uFguqdwmR4wM4Cw1W-739">
          <mxGeometry x="30" y="60" width="30" height="30" as="geometry" />
        </mxCell>
        <mxCell id="bN_uFguqdwmR4wM4Cw1W-771" value="" style="rounded=0;whiteSpace=wrap;html=1;" vertex="1" parent="bN_uFguqdwmR4wM4Cw1W-739">
          <mxGeometry y="30" width="30" height="30" as="geometry" />
        </mxCell>
        <mxCell id="bN_uFguqdwmR4wM4Cw1W-772" value="" style="rounded=0;whiteSpace=wrap;html=1;" vertex="1" parent="bN_uFguqdwmR4wM4Cw1W-739">
          <mxGeometry x="30" y="30" width="30" height="30" as="geometry" />
        </mxCell>
        <mxCell id="bN_uFguqdwmR4wM4Cw1W-773" value="" style="rounded=0;whiteSpace=wrap;html=1;" vertex="1" parent="bN_uFguqdwmR4wM4Cw1W-739">
          <mxGeometry x="60" y="60" width="30" height="30" as="geometry" />
        </mxCell>
        <mxCell id="bN_uFguqdwmR4wM4Cw1W-774" value="" style="rounded=0;whiteSpace=wrap;html=1;" vertex="1" parent="bN_uFguqdwmR4wM4Cw1W-739">
          <mxGeometry x="90" y="60" width="30" height="30" as="geometry" />
        </mxCell>
        <mxCell id="bN_uFguqdwmR4wM4Cw1W-775" value="" style="rounded=0;whiteSpace=wrap;html=1;" vertex="1" parent="bN_uFguqdwmR4wM4Cw1W-739">
          <mxGeometry x="60" y="30" width="30" height="30" as="geometry" />
        </mxCell>
        <mxCell id="bN_uFguqdwmR4wM4Cw1W-776" value="" style="rounded=0;whiteSpace=wrap;html=1;" vertex="1" parent="bN_uFguqdwmR4wM4Cw1W-739">
          <mxGeometry x="90" y="30" width="30" height="30" as="geometry" />
        </mxCell>
        <mxCell id="bN_uFguqdwmR4wM4Cw1W-777" value="" style="rounded=0;whiteSpace=wrap;html=1;" vertex="1" parent="bN_uFguqdwmR4wM4Cw1W-739">
          <mxGeometry x="120" y="60" width="30" height="30" as="geometry" />
        </mxCell>
        <mxCell id="bN_uFguqdwmR4wM4Cw1W-778" value="" style="rounded=0;whiteSpace=wrap;html=1;" vertex="1" parent="bN_uFguqdwmR4wM4Cw1W-739">
          <mxGeometry x="150" y="60" width="30" height="30" as="geometry" />
        </mxCell>
        <mxCell id="bN_uFguqdwmR4wM4Cw1W-779" value="" style="rounded=0;whiteSpace=wrap;html=1;" vertex="1" parent="bN_uFguqdwmR4wM4Cw1W-739">
          <mxGeometry x="120" y="30" width="30" height="30" as="geometry" />
        </mxCell>
        <mxCell id="bN_uFguqdwmR4wM4Cw1W-780" value="" style="rounded=0;whiteSpace=wrap;html=1;" vertex="1" parent="bN_uFguqdwmR4wM4Cw1W-739">
          <mxGeometry x="150" y="30" width="30" height="30" as="geometry" />
        </mxCell>
        <mxCell id="bN_uFguqdwmR4wM4Cw1W-781" value="" style="rounded=0;whiteSpace=wrap;html=1;" vertex="1" parent="bN_uFguqdwmR4wM4Cw1W-739">
          <mxGeometry x="180" y="60" width="30" height="30" as="geometry" />
        </mxCell>
        <mxCell id="bN_uFguqdwmR4wM4Cw1W-782" value="" style="rounded=0;whiteSpace=wrap;html=1;" vertex="1" parent="bN_uFguqdwmR4wM4Cw1W-739">
          <mxGeometry x="210" y="60" width="30" height="30" as="geometry" />
        </mxCell>
        <mxCell id="bN_uFguqdwmR4wM4Cw1W-783" value="" style="rounded=0;whiteSpace=wrap;html=1;" vertex="1" parent="bN_uFguqdwmR4wM4Cw1W-739">
          <mxGeometry x="180" y="30" width="30" height="30" as="geometry" />
        </mxCell>
        <mxCell id="bN_uFguqdwmR4wM4Cw1W-784" value="" style="rounded=0;whiteSpace=wrap;html=1;" vertex="1" parent="bN_uFguqdwmR4wM4Cw1W-739">
          <mxGeometry x="210" y="30" width="30" height="30" as="geometry" />
        </mxCell>
        <mxCell id="bN_uFguqdwmR4wM4Cw1W-785" value="" style="rounded=0;whiteSpace=wrap;html=1;" vertex="1" parent="bN_uFguqdwmR4wM4Cw1W-739">
          <mxGeometry x="240" y="60" width="30" height="30" as="geometry" />
        </mxCell>
        <mxCell id="bN_uFguqdwmR4wM4Cw1W-786" value="" style="rounded=0;whiteSpace=wrap;html=1;" vertex="1" parent="bN_uFguqdwmR4wM4Cw1W-739">
          <mxGeometry x="270" y="60" width="30" height="30" as="geometry" />
        </mxCell>
        <mxCell id="bN_uFguqdwmR4wM4Cw1W-787" value="" style="rounded=0;whiteSpace=wrap;html=1;" vertex="1" parent="bN_uFguqdwmR4wM4Cw1W-739">
          <mxGeometry x="240" y="30" width="30" height="30" as="geometry" />
        </mxCell>
        <mxCell id="bN_uFguqdwmR4wM4Cw1W-788" value="" style="rounded=0;whiteSpace=wrap;html=1;" vertex="1" parent="bN_uFguqdwmR4wM4Cw1W-739">
          <mxGeometry x="270" y="30" width="30" height="30" as="geometry" />
        </mxCell>
        <mxCell id="bN_uFguqdwmR4wM4Cw1W-789" value="" style="rounded=0;whiteSpace=wrap;html=1;" vertex="1" parent="bN_uFguqdwmR4wM4Cw1W-739">
          <mxGeometry x="300" y="60" width="30" height="30" as="geometry" />
        </mxCell>
        <mxCell id="bN_uFguqdwmR4wM4Cw1W-790" value="" style="rounded=0;whiteSpace=wrap;html=1;" vertex="1" parent="bN_uFguqdwmR4wM4Cw1W-739">
          <mxGeometry x="330" y="60" width="30" height="30" as="geometry" />
        </mxCell>
        <mxCell id="bN_uFguqdwmR4wM4Cw1W-791" value="" style="rounded=0;whiteSpace=wrap;html=1;" vertex="1" parent="bN_uFguqdwmR4wM4Cw1W-739">
          <mxGeometry x="300" y="30" width="30" height="30" as="geometry" />
        </mxCell>
        <mxCell id="bN_uFguqdwmR4wM4Cw1W-792" value="" style="rounded=0;whiteSpace=wrap;html=1;" vertex="1" parent="bN_uFguqdwmR4wM4Cw1W-739">
          <mxGeometry x="330" y="30" width="30" height="30" as="geometry" />
        </mxCell>
        <mxCell id="bN_uFguqdwmR4wM4Cw1W-793" value="" style="rounded=0;whiteSpace=wrap;html=1;" vertex="1" parent="bN_uFguqdwmR4wM4Cw1W-739">
          <mxGeometry x="360" y="60" width="30" height="30" as="geometry" />
        </mxCell>
        <mxCell id="bN_uFguqdwmR4wM4Cw1W-794" value="" style="rounded=0;whiteSpace=wrap;html=1;" vertex="1" parent="bN_uFguqdwmR4wM4Cw1W-739">
          <mxGeometry x="390" y="60" width="30" height="30" as="geometry" />
        </mxCell>
        <mxCell id="bN_uFguqdwmR4wM4Cw1W-795" value="" style="rounded=0;whiteSpace=wrap;html=1;" vertex="1" parent="bN_uFguqdwmR4wM4Cw1W-739">
          <mxGeometry x="360" y="30" width="30" height="30" as="geometry" />
        </mxCell>
        <mxCell id="bN_uFguqdwmR4wM4Cw1W-796" value="" style="rounded=0;whiteSpace=wrap;html=1;" vertex="1" parent="bN_uFguqdwmR4wM4Cw1W-739">
          <mxGeometry x="390" y="30" width="30" height="30" as="geometry" />
        </mxCell>
        <mxCell id="bN_uFguqdwmR4wM4Cw1W-797" value="......" style="text;html=1;align=center;verticalAlign=middle;resizable=0;points=[];autosize=1;strokeColor=none;fillColor=none;" vertex="1" parent="1">
          <mxGeometry x="520" y="1108" width="40" height="30" as="geometry" />
        </mxCell>
        <mxCell id="bN_uFguqdwmR4wM4Cw1W-798" value="" style="rounded=0;whiteSpace=wrap;html=1;" vertex="1" parent="1">
          <mxGeometry x="880" y="840" width="290" height="500" as="geometry" />
        </mxCell>
        <mxCell id="bN_uFguqdwmR4wM4Cw1W-799" value="stack" style="rounded=0;whiteSpace=wrap;html=1;" vertex="1" parent="1">
          <mxGeometry x="890" y="850" width="270" height="60" as="geometry" />
        </mxCell>
        <mxCell id="bN_uFguqdwmR4wM4Cw1W-801" value="" style="rounded=0;whiteSpace=wrap;html=1;" vertex="1" parent="1">
          <mxGeometry x="890" y="920" width="60" height="280" as="geometry" />
        </mxCell>
        <mxCell id="bN_uFguqdwmR4wM4Cw1W-802" value="" style="rounded=0;whiteSpace=wrap;html=1;" vertex="1" parent="1">
          <mxGeometry x="970" y="920.5" width="60" height="280" as="geometry" />
        </mxCell>
        <mxCell id="bN_uFguqdwmR4wM4Cw1W-803" value="" style="rounded=0;whiteSpace=wrap;html=1;" vertex="1" parent="1">
          <mxGeometry x="1100" y="920.5" width="60" height="280" as="geometry" />
        </mxCell>
        <mxCell id="bN_uFguqdwmR4wM4Cw1W-804" value="..." style="text;html=1;align=center;verticalAlign=middle;resizable=0;points=[];autosize=1;strokeColor=none;fillColor=none;" vertex="1" parent="1">
          <mxGeometry x="1050" y="1045.5" width="30" height="30" as="geometry" />
        </mxCell>
        <mxCell id="bN_uFguqdwmR4wM4Cw1W-806" value="" style="curved=1;endArrow=classic;html=1;rounded=0;" edge="1" parent="1">
          <mxGeometry width="50" height="50" relative="1" as="geometry">
            <mxPoint x="910" y="1010" as="sourcePoint" />
            <mxPoint x="930" y="1080" as="targetPoint" />
            <Array as="points">
              <mxPoint x="940" y="1020" />
              <mxPoint x="930" y="1050" />
              <mxPoint x="900" y="1060" />
            </Array>
          </mxGeometry>
        </mxCell>
        <mxCell id="bN_uFguqdwmR4wM4Cw1W-807" value="" style="curved=1;endArrow=classic;html=1;rounded=0;" edge="1" parent="1">
          <mxGeometry width="50" height="50" relative="1" as="geometry">
            <mxPoint x="990" y="1010" as="sourcePoint" />
            <mxPoint x="1010" y="1080" as="targetPoint" />
            <Array as="points">
              <mxPoint x="1020" y="1020" />
              <mxPoint x="1010" y="1050" />
              <mxPoint x="980" y="1060" />
            </Array>
          </mxGeometry>
        </mxCell>
        <mxCell id="bN_uFguqdwmR4wM4Cw1W-808" value="" style="curved=1;endArrow=classic;html=1;rounded=0;" edge="1" parent="1">
          <mxGeometry width="50" height="50" relative="1" as="geometry">
            <mxPoint x="1120" y="1010" as="sourcePoint" />
            <mxPoint x="1140" y="1080" as="targetPoint" />
            <Array as="points">
              <mxPoint x="1150" y="1020" />
              <mxPoint x="1140" y="1050" />
              <mxPoint x="1110" y="1060" />
            </Array>
          </mxGeometry>
        </mxCell>
        <mxCell id="bN_uFguqdwmR4wM4Cw1W-809" value="" style="endArrow=classic;html=1;rounded=0;exitX=0;exitY=0.5;exitDx=0;exitDy=0;" edge="1" parent="1" source="bN_uFguqdwmR4wM4Cw1W-801">
          <mxGeometry width="50" height="50" relative="1" as="geometry">
            <mxPoint x="810" y="1100" as="sourcePoint" />
            <mxPoint x="780" y="910" as="targetPoint" />
          </mxGeometry>
        </mxCell>
        <mxCell id="bN_uFguqdwmR4wM4Cw1W-810" value="" style="endArrow=classic;html=1;rounded=0;" edge="1" parent="1" source="bN_uFguqdwmR4wM4Cw1W-802">
          <mxGeometry width="50" height="50" relative="1" as="geometry">
            <mxPoint x="900" y="1070" as="sourcePoint" />
            <mxPoint x="780" y="1040" as="targetPoint" />
          </mxGeometry>
        </mxCell>
        <mxCell id="bN_uFguqdwmR4wM4Cw1W-811" value="" style="endArrow=classic;html=1;rounded=0;exitX=0;exitY=0.5;exitDx=0;exitDy=0;" edge="1" parent="1" source="bN_uFguqdwmR4wM4Cw1W-803">
          <mxGeometry width="50" height="50" relative="1" as="geometry">
            <mxPoint x="980" y="1068" as="sourcePoint" />
            <mxPoint x="790" y="1230" as="targetPoint" />
          </mxGeometry>
        </mxCell>
      </root>
    </mxGraphModel>
  </diagram>
</mxfile>
